<svg xmlns="http://www.w3.org/2000/svg" viewBox="0 0 1400 800" width="1400" height="800" preserveAspectRatio="xMidYMid slice" role="presentation">
  <defs>
    <linearGradient id="panel" x1="0" y1="0" x2="1" y2="1">
      <stop offset="0" stop-color="#12141c"/>
      <stop offset="0.55" stop-color="#1d2130"/>
      <stop offset="1" stop-color="#12141c"/>
    </linearGradient>
    <linearGradient id="sweep" x1="0" y1="1" x2="1" y2="0">
      <stop offset="0" stop-color="#2f57c9" stop-opacity="0"/>
      <stop offset="0.5" stop-color="#2f57c9" stop-opacity="0.30"/>
      <stop offset="1" stop-color="#5fb7e0" stop-opacity="0.10"/>
    </linearGradient>
    <radialGradient id="bead" cx="0.38" cy="0.34" r="0.72">
      <stop offset="0" stop-color="#9fd8ef" stop-opacity="0.30"/>
      <stop offset="0.45" stop-color="#5fb7e0" stop-opacity="0.13"/>
      <stop offset="0.82" stop-color="#9fd8ef" stop-opacity="0.42"/>
      <stop offset="1" stop-color="#ffffff" stop-opacity="0.55"/>
    </radialGradient>
    <radialGradient id="shadow" cx="0.5" cy="0.5" r="0.5">
      <stop offset="0" stop-color="#000000" stop-opacity="0.55"/>
      <stop offset="1" stop-color="#000000" stop-opacity="0"/>
    </radialGradient>
    <filter id="soft" x="-50%" y="-50%" width="200%" height="200%">
      <feGaussianBlur stdDeviation="1.1"/>
    </filter>
  </defs>
  <rect width="1400" height="800" fill="url(#panel)"/>
  <rect width="1400" height="800" fill="url(#sweep)"/>
  <g opacity="0.825"><ellipse cx="969.7" cy="58.6" rx="54.0" ry="48.9" fill="url(#shadow)"/><circle cx="964.5" cy="48.3" r="51.5" fill="url(#bead)"/><ellipse cx="947.5" cy="28.7" rx="13.4" ry="10.3" fill="#ffffff" opacity="0.80" filter="url(#soft)"/><ellipse cx="982.0" cy="66.8" rx="10.3" ry="7.7" fill="#5fb7e0" opacity="0.55" filter="url(#soft)"/></g>
  <g opacity="0.84"><ellipse cx="1166.5" cy="389.3" rx="53.7" ry="48.6" fill="url(#shadow)"/><circle cx="1161.4" cy="379.0" r="51.2" fill="url(#bead)"/><ellipse cx="1144.5" cy="359.6" rx="13.3" ry="10.2" fill="#ffffff" opacity="0.80" filter="url(#soft)"/><ellipse cx="1178.8" cy="397.5" rx="10.2" ry="7.7" fill="#5fb7e0" opacity="0.55" filter="url(#soft)"/></g>
  <g opacity="0.861"><ellipse cx="1213.9" cy="294.9" rx="53.6" ry="48.5" fill="url(#shadow)"/><circle cx="1208.8" cy="284.7" r="51.1" fill="url(#bead)"/><ellipse cx="1192.0" cy="265.3" rx="13.3" ry="10.2" fill="#ffffff" opacity="0.80" filter="url(#soft)"/><ellipse cx="1226.2" cy="303.1" rx="10.2" ry="7.7" fill="#5fb7e0" opacity="0.55" filter="url(#soft)"/></g>
  <g opacity="0.269"><ellipse cx="113.2" cy="563.8" rx="52.7" ry="47.7" fill="url(#shadow)"/><circle cx="108.1" cy="553.7" r="50.2" fill="url(#bead)"/><ellipse cx="91.6" cy="534.6" rx="13.1" ry="10.0" fill="#ffffff" opacity="0.80" filter="url(#soft)"/><ellipse cx="125.2" cy="571.8" rx="10.0" ry="7.5" fill="#5fb7e0" opacity="0.55" filter="url(#soft)"/></g>
  <g opacity="0.978"><ellipse cx="1366.4" cy="380.8" rx="46.9" ry="42.4" fill="url(#shadow)"/><circle cx="1361.9" cy="371.9" r="44.7" fill="url(#bead)"/><ellipse cx="1347.2" cy="354.9" rx="11.6" ry="8.9" fill="#ffffff" opacity="0.80" filter="url(#soft)"/><ellipse cx="1377.1" cy="388.0" rx="8.9" ry="6.7" fill="#5fb7e0" opacity="0.55" filter="url(#soft)"/></g>
  <g opacity="0.971"><ellipse cx="636.3" cy="426.9" rx="45.8" ry="41.5" fill="url(#shadow)"/><circle cx="631.9" cy="418.2" r="43.7" fill="url(#bead)"/><ellipse cx="617.5" cy="401.6" rx="11.3" ry="8.7" fill="#ffffff" opacity="0.80" filter="url(#soft)"/><ellipse cx="646.7" cy="433.9" rx="8.7" ry="6.5" fill="#5fb7e0" opacity="0.55" filter="url(#soft)"/></g>
  <g opacity="0.541"><ellipse cx="667.5" cy="644.1" rx="43.9" ry="39.7" fill="url(#shadow)"/><circle cx="663.3" cy="635.7" r="41.8" fill="url(#bead)"/><ellipse cx="649.5" cy="619.8" rx="10.9" ry="8.4" fill="#ffffff" opacity="0.80" filter="url(#soft)"/><ellipse cx="677.6" cy="650.8" rx="8.4" ry="6.3" fill="#5fb7e0" opacity="0.55" filter="url(#soft)"/></g>
  <g opacity="0.992"><ellipse cx="1208.1" cy="493.6" rx="43.3" ry="39.2" fill="url(#shadow)"/><circle cx="1204.0" cy="485.4" r="41.2" fill="url(#bead)"/><ellipse cx="1190.4" cy="469.7" rx="10.7" ry="8.2" fill="#ffffff" opacity="0.80" filter="url(#soft)"/><ellipse cx="1218.0" cy="500.2" rx="8.2" ry="6.2" fill="#5fb7e0" opacity="0.55" filter="url(#soft)"/></g>
  <g opacity="0.804"><ellipse cx="1349.9" cy="522.2" rx="42.2" ry="38.2" fill="url(#shadow)"/><circle cx="1345.8" cy="514.2" r="40.2" fill="url(#bead)"/><ellipse cx="1332.6" cy="498.9" rx="10.5" ry="8.0" fill="#ffffff" opacity="0.80" filter="url(#soft)"/><ellipse cx="1359.5" cy="528.6" rx="8.0" ry="6.0" fill="#5fb7e0" opacity="0.55" filter="url(#soft)"/></g>
  <g opacity="0.73"><ellipse cx="1155.2" cy="196.0" rx="42.1" ry="38.0" fill="url(#shadow)"/><circle cx="1151.2" cy="188.0" r="40.1" fill="url(#bead)"/><ellipse cx="1138.0" cy="172.7" rx="10.4" ry="8.0" fill="#ffffff" opacity="0.80" filter="url(#soft)"/><ellipse cx="1164.8" cy="202.4" rx="8.0" ry="6.0" fill="#5fb7e0" opacity="0.55" filter="url(#soft)"/></g>
  <g opacity="0.449"><ellipse cx="384.6" cy="630.5" rx="42.0" ry="38.0" fill="url(#shadow)"/><circle cx="380.6" cy="622.5" r="40.0" fill="url(#bead)"/><ellipse cx="367.4" cy="607.3" rx="10.4" ry="8.0" fill="#ffffff" opacity="0.80" filter="url(#soft)"/><ellipse cx="394.2" cy="636.9" rx="8.0" ry="6.0" fill="#5fb7e0" opacity="0.55" filter="url(#soft)"/></g>
  <g opacity="0.502"><ellipse cx="926.7" cy="703.1" rx="40.9" ry="37.0" fill="url(#shadow)"/><circle cx="922.8" cy="695.3" r="39.0" fill="url(#bead)"/><ellipse cx="909.9" cy="680.5" rx="10.1" ry="7.8" fill="#ffffff" opacity="0.80" filter="url(#soft)"/><ellipse cx="936.1" cy="709.4" rx="7.8" ry="5.8" fill="#5fb7e0" opacity="0.55" filter="url(#soft)"/></g>
  <g opacity="0.878"><ellipse cx="619.2" cy="69.9" rx="40.9" ry="37.0" fill="url(#shadow)"/><circle cx="615.3" cy="62.1" r="39.0" fill="url(#bead)"/><ellipse cx="602.5" cy="47.3" rx="10.1" ry="7.8" fill="#ffffff" opacity="0.80" filter="url(#soft)"/><ellipse cx="628.6" cy="76.1" rx="7.8" ry="5.8" fill="#5fb7e0" opacity="0.55" filter="url(#soft)"/></g>
  <g opacity="0.946"><ellipse cx="1008.5" cy="441.9" rx="40.5" ry="36.6" fill="url(#shadow)"/><circle cx="1004.7" cy="434.2" r="38.5" fill="url(#bead)"/><ellipse cx="992.0" cy="419.5" rx="10.0" ry="7.7" fill="#ffffff" opacity="0.80" filter="url(#soft)"/><ellipse cx="1017.8" cy="448.1" rx="7.7" ry="5.8" fill="#5fb7e0" opacity="0.55" filter="url(#soft)"/></g>
  <g opacity="0.633"><ellipse cx="1170.9" cy="399.6" rx="39.1" ry="35.4" fill="url(#shadow)"/><circle cx="1167.2" cy="392.1" r="37.3" fill="url(#bead)"/><ellipse cx="1154.9" cy="378.0" rx="9.7" ry="7.5" fill="#ffffff" opacity="0.80" filter="url(#soft)"/><ellipse cx="1179.8" cy="405.5" rx="7.5" ry="5.6" fill="#5fb7e0" opacity="0.55" filter="url(#soft)"/></g>
  <g opacity="0.578"><ellipse cx="1247.7" cy="784.4" rx="38.9" ry="35.2" fill="url(#shadow)"/><circle cx="1244.0" cy="777.0" r="37.0" fill="url(#bead)"/><ellipse cx="1231.8" cy="763.0" rx="9.6" ry="7.4" fill="#ffffff" opacity="0.80" filter="url(#soft)"/><ellipse cx="1256.6" cy="790.4" rx="7.4" ry="5.6" fill="#5fb7e0" opacity="0.55" filter="url(#soft)"/></g>
  <g opacity="0.834"><ellipse cx="1107.1" cy="378.0" rx="38.3" ry="34.6" fill="url(#shadow)"/><circle cx="1103.5" cy="370.7" r="36.4" fill="url(#bead)"/><ellipse cx="1091.5" cy="356.8" rx="9.5" ry="7.3" fill="#ffffff" opacity="0.80" filter="url(#soft)"/><ellipse cx="1115.9" cy="383.8" rx="7.3" ry="5.5" fill="#5fb7e0" opacity="0.55" filter="url(#soft)"/></g>
  <g opacity="0.581"><ellipse cx="794.7" cy="409.5" rx="37.6" ry="34.0" fill="url(#shadow)"/><circle cx="791.1" cy="402.3" r="35.8" fill="url(#bead)"/><ellipse cx="779.3" cy="388.7" rx="9.3" ry="7.2" fill="#ffffff" opacity="0.80" filter="url(#soft)"/><ellipse cx="803.3" cy="415.2" rx="7.2" ry="5.4" fill="#5fb7e0" opacity="0.55" filter="url(#soft)"/></g>
  <g opacity="0.629"><ellipse cx="1241.3" cy="684.8" rx="37.5" ry="33.9" fill="url(#shadow)"/><circle cx="1237.7" cy="677.7" r="35.7" fill="url(#bead)"/><ellipse cx="1225.9" cy="664.1" rx="9.3" ry="7.1" fill="#ffffff" opacity="0.80" filter="url(#soft)"/><ellipse cx="1249.8" cy="690.5" rx="7.1" ry="5.4" fill="#5fb7e0" opacity="0.55" filter="url(#soft)"/></g>
  <g opacity="0.789"><ellipse cx="1089.8" cy="85.2" rx="37.2" ry="33.6" fill="url(#shadow)"/><circle cx="1086.3" cy="78.1" r="35.4" fill="url(#bead)"/><ellipse cx="1074.6" cy="64.7" rx="9.2" ry="7.1" fill="#ffffff" opacity="0.80" filter="url(#soft)"/><ellipse cx="1098.3" cy="90.9" rx="7.1" ry="5.3" fill="#5fb7e0" opacity="0.55" filter="url(#soft)"/></g>
  <g opacity="0.643"><ellipse cx="548.2" cy="257.4" rx="36.3" ry="32.8" fill="url(#shadow)"/><circle cx="544.8" cy="250.4" r="34.5" fill="url(#bead)"/><ellipse cx="533.4" cy="237.3" rx="9.0" ry="6.9" fill="#ffffff" opacity="0.80" filter="url(#soft)"/><ellipse cx="556.5" cy="262.9" rx="6.9" ry="5.2" fill="#5fb7e0" opacity="0.55" filter="url(#soft)"/></g>
  <g opacity="0.952"><ellipse cx="1164.8" cy="720.8" rx="34.6" ry="31.3" fill="url(#shadow)"/><circle cx="1161.5" cy="714.3" r="33.0" fill="url(#bead)"/><ellipse cx="1150.6" cy="701.7" rx="8.6" ry="6.6" fill="#ffffff" opacity="0.80" filter="url(#soft)"/><ellipse cx="1172.7" cy="726.1" rx="6.6" ry="4.9" fill="#5fb7e0" opacity="0.55" filter="url(#soft)"/></g>
  <g opacity="0.352"><ellipse cx="386.7" cy="208.3" rx="34.6" ry="31.3" fill="url(#shadow)"/><circle cx="383.4" cy="201.7" r="33.0" fill="url(#bead)"/><ellipse cx="372.5" cy="189.1" rx="8.6" ry="6.6" fill="#ffffff" opacity="0.80" filter="url(#soft)"/><ellipse cx="394.6" cy="213.5" rx="6.6" ry="4.9" fill="#5fb7e0" opacity="0.55" filter="url(#soft)"/></g>
  <g opacity="0.523"><ellipse cx="1264.6" cy="96.2" rx="31.0" ry="28.1" fill="url(#shadow)"/><circle cx="1261.7" cy="90.3" r="29.5" fill="url(#bead)"/><ellipse cx="1251.9" cy="79.1" rx="7.7" ry="5.9" fill="#ffffff" opacity="0.80" filter="url(#soft)"/><ellipse cx="1271.7" cy="101.0" rx="5.9" ry="4.4" fill="#5fb7e0" opacity="0.55" filter="url(#soft)"/></g>
  <g opacity="0.74"><ellipse cx="894.1" cy="786.6" rx="30.6" ry="27.7" fill="url(#shadow)"/><circle cx="891.2" cy="780.8" r="29.2" fill="url(#bead)"/><ellipse cx="881.6" cy="769.7" rx="7.6" ry="5.8" fill="#ffffff" opacity="0.80" filter="url(#soft)"/><ellipse cx="901.1" cy="791.3" rx="5.8" ry="4.4" fill="#5fb7e0" opacity="0.55" filter="url(#soft)"/></g>
  <g opacity="0.671"><ellipse cx="433.7" cy="587.9" rx="29.3" ry="26.5" fill="url(#shadow)"/><circle cx="430.9" cy="582.4" r="27.9" fill="url(#bead)"/><ellipse cx="421.7" cy="571.8" rx="7.3" ry="5.6" fill="#ffffff" opacity="0.80" filter="url(#soft)"/><ellipse cx="440.4" cy="592.4" rx="5.6" ry="4.2" fill="#5fb7e0" opacity="0.55" filter="url(#soft)"/></g>
  <g opacity="0.686"><ellipse cx="1107.0" cy="115.8" rx="28.7" ry="25.9" fill="url(#shadow)"/><circle cx="1104.3" cy="110.3" r="27.3" fill="url(#bead)"/><ellipse cx="1095.3" cy="99.9" rx="7.1" ry="5.5" fill="#ffffff" opacity="0.80" filter="url(#soft)"/><ellipse cx="1113.6" cy="120.2" rx="5.5" ry="4.1" fill="#5fb7e0" opacity="0.55" filter="url(#soft)"/></g>
  <g opacity="0.779"><ellipse cx="1344.0" cy="357.9" rx="28.5" ry="25.8" fill="url(#shadow)"/><circle cx="1341.3" cy="352.5" r="27.1" fill="url(#bead)"/><ellipse cx="1332.4" cy="342.2" rx="7.1" ry="5.4" fill="#ffffff" opacity="0.80" filter="url(#soft)"/><ellipse cx="1350.5" cy="362.3" rx="5.4" ry="4.1" fill="#5fb7e0" opacity="0.55" filter="url(#soft)"/></g>
  <g opacity="0.911"><ellipse cx="698.5" cy="152.0" rx="28.1" ry="25.5" fill="url(#shadow)"/><circle cx="695.9" cy="146.6" r="26.8" fill="url(#bead)"/><ellipse cx="687.0" cy="136.5" rx="7.0" ry="5.4" fill="#ffffff" opacity="0.80" filter="url(#soft)"/><ellipse cx="705.0" cy="156.3" rx="5.4" ry="4.0" fill="#5fb7e0" opacity="0.55" filter="url(#soft)"/></g>
  <g opacity="0.488"><ellipse cx="433.3" cy="735.8" rx="27.2" ry="24.7" fill="url(#shadow)"/><circle cx="430.7" cy="730.6" r="25.9" fill="url(#bead)"/><ellipse cx="422.1" cy="720.7" rx="6.7" ry="5.2" fill="#ffffff" opacity="0.80" filter="url(#soft)"/><ellipse cx="439.5" cy="739.9" rx="5.2" ry="3.9" fill="#5fb7e0" opacity="0.55" filter="url(#soft)"/></g>
  <g opacity="0.827"><ellipse cx="1361.4" cy="561.7" rx="25.6" ry="23.2" fill="url(#shadow)"/><circle cx="1358.9" cy="556.8" r="24.4" fill="url(#bead)"/><ellipse cx="1350.9" cy="547.5" rx="6.3" ry="4.9" fill="#ffffff" opacity="0.80" filter="url(#soft)"/><ellipse cx="1367.2" cy="565.6" rx="4.9" ry="3.7" fill="#5fb7e0" opacity="0.55" filter="url(#soft)"/></g>
  <g opacity="0.321"><ellipse cx="118.7" cy="288.8" rx="25.3" ry="22.9" fill="url(#shadow)"/><circle cx="116.3" cy="283.9" r="24.1" fill="url(#bead)"/><ellipse cx="108.4" cy="274.8" rx="6.3" ry="4.8" fill="#ffffff" opacity="0.80" filter="url(#soft)"/><ellipse cx="124.5" cy="292.6" rx="4.8" ry="3.6" fill="#5fb7e0" opacity="0.55" filter="url(#soft)"/></g>
  <g opacity="0.645"><ellipse cx="1342.7" cy="514.4" rx="24.1" ry="21.8" fill="url(#shadow)"/><circle cx="1340.4" cy="509.8" r="23.0" fill="url(#bead)"/><ellipse cx="1332.8" cy="501.1" rx="6.0" ry="4.6" fill="#ffffff" opacity="0.80" filter="url(#soft)"/><ellipse cx="1348.2" cy="518.1" rx="4.6" ry="3.4" fill="#5fb7e0" opacity="0.55" filter="url(#soft)"/></g>
  <g opacity="0.551"><ellipse cx="1023.0" cy="114.4" rx="23.9" ry="21.6" fill="url(#shadow)"/><circle cx="1020.7" cy="109.8" r="22.7" fill="url(#bead)"/><ellipse cx="1013.2" cy="101.2" rx="5.9" ry="4.5" fill="#ffffff" opacity="0.80" filter="url(#soft)"/><ellipse cx="1028.5" cy="118.0" rx="4.5" ry="3.4" fill="#5fb7e0" opacity="0.55" filter="url(#soft)"/></g>
  <g opacity="0.627"><ellipse cx="1056.4" cy="187.2" rx="23.8" ry="21.6" fill="url(#shadow)"/><circle cx="1054.2" cy="182.7" r="22.7" fill="url(#bead)"/><ellipse cx="1046.7" cy="174.1" rx="5.9" ry="4.5" fill="#ffffff" opacity="0.80" filter="url(#soft)"/><ellipse cx="1061.9" cy="190.9" rx="4.5" ry="3.4" fill="#5fb7e0" opacity="0.55" filter="url(#soft)"/></g>
  <g opacity="0.741"><ellipse cx="1167.0" cy="267.9" rx="23.7" ry="21.4" fill="url(#shadow)"/><circle cx="1164.7" cy="263.4" r="22.6" fill="url(#bead)"/><ellipse cx="1157.3" cy="254.8" rx="5.9" ry="4.5" fill="#ffffff" opacity="0.80" filter="url(#soft)"/><ellipse cx="1172.4" cy="271.5" rx="4.5" ry="3.4" fill="#5fb7e0" opacity="0.55" filter="url(#soft)"/></g>
  <g opacity="0.641"><ellipse cx="1089.6" cy="325.9" rx="23.4" ry="21.2" fill="url(#shadow)"/><circle cx="1087.4" cy="321.5" r="22.3" fill="url(#bead)"/><ellipse cx="1080.0" cy="313.0" rx="5.8" ry="4.5" fill="#ffffff" opacity="0.80" filter="url(#soft)"/><ellipse cx="1094.9" cy="329.5" rx="4.5" ry="3.3" fill="#5fb7e0" opacity="0.55" filter="url(#soft)"/></g>
  <g opacity="0.6"><ellipse cx="847.6" cy="501.9" rx="22.9" ry="20.7" fill="url(#shadow)"/><circle cx="845.4" cy="497.5" r="21.8" fill="url(#bead)"/><ellipse cx="838.2" cy="489.2" rx="5.7" ry="4.4" fill="#ffffff" opacity="0.80" filter="url(#soft)"/><ellipse cx="852.8" cy="505.4" rx="4.4" ry="3.3" fill="#5fb7e0" opacity="0.55" filter="url(#soft)"/></g>
  <g opacity="0.64"><ellipse cx="414.6" cy="434.4" rx="22.6" ry="20.4" fill="url(#shadow)"/><circle cx="412.5" cy="430.1" r="21.5" fill="url(#bead)"/><ellipse cx="405.4" cy="421.9" rx="5.6" ry="4.3" fill="#ffffff" opacity="0.80" filter="url(#soft)"/><ellipse cx="419.8" cy="437.8" rx="4.3" ry="3.2" fill="#5fb7e0" opacity="0.55" filter="url(#soft)"/></g>
  <g opacity="0.424"><ellipse cx="251.2" cy="554.9" rx="22.5" ry="20.3" fill="url(#shadow)"/><circle cx="249.1" cy="550.6" r="21.4" fill="url(#bead)"/><ellipse cx="242.0" cy="542.4" rx="5.6" ry="4.3" fill="#ffffff" opacity="0.80" filter="url(#soft)"/><ellipse cx="256.4" cy="558.3" rx="4.3" ry="3.2" fill="#5fb7e0" opacity="0.55" filter="url(#soft)"/></g>
  <g opacity="0.234"><ellipse cx="183.3" cy="50.3" rx="22.5" ry="20.3" fill="url(#shadow)"/><circle cx="181.2" cy="46.0" r="21.4" fill="url(#bead)"/><ellipse cx="174.1" cy="37.9" rx="5.6" ry="4.3" fill="#ffffff" opacity="0.80" filter="url(#soft)"/><ellipse cx="188.4" cy="53.7" rx="4.3" ry="3.2" fill="#5fb7e0" opacity="0.55" filter="url(#soft)"/></g>
  <g opacity="0.866"><ellipse cx="1163.6" cy="208.5" rx="22.0" ry="19.9" fill="url(#shadow)"/><circle cx="1161.5" cy="204.3" r="20.9" fill="url(#bead)"/><ellipse cx="1154.6" cy="196.4" rx="5.4" ry="4.2" fill="#ffffff" opacity="0.80" filter="url(#soft)"/><ellipse cx="1168.6" cy="211.9" rx="4.2" ry="3.1" fill="#5fb7e0" opacity="0.55" filter="url(#soft)"/></g>
  <g opacity="0.913"><ellipse cx="817.4" cy="219.0" rx="21.5" ry="19.4" fill="url(#shadow)"/><circle cx="815.4" cy="214.9" r="20.4" fill="url(#bead)"/><ellipse cx="808.7" cy="207.1" rx="5.3" ry="4.1" fill="#ffffff" opacity="0.80" filter="url(#soft)"/><ellipse cx="822.3" cy="222.3" rx="4.1" ry="3.1" fill="#5fb7e0" opacity="0.55" filter="url(#soft)"/></g>
  <g opacity="0.783"><ellipse cx="640.6" cy="146.7" rx="21.0" ry="19.0" fill="url(#shadow)"/><circle cx="638.6" cy="142.7" r="20.0" fill="url(#bead)"/><ellipse cx="632.0" cy="135.1" rx="5.2" ry="4.0" fill="#ffffff" opacity="0.80" filter="url(#soft)"/><ellipse cx="645.4" cy="149.9" rx="4.0" ry="3.0" fill="#5fb7e0" opacity="0.55" filter="url(#soft)"/></g>
  <g opacity="0.845"><ellipse cx="931.3" cy="192.0" rx="21.0" ry="19.0" fill="url(#shadow)"/><circle cx="929.3" cy="188.0" r="20.0" fill="url(#bead)"/><ellipse cx="922.7" cy="180.4" rx="5.2" ry="4.0" fill="#ffffff" opacity="0.80" filter="url(#soft)"/><ellipse cx="936.1" cy="195.1" rx="4.0" ry="3.0" fill="#5fb7e0" opacity="0.55" filter="url(#soft)"/></g>
  <g opacity="0.573"><ellipse cx="553.8" cy="447.5" rx="20.7" ry="18.7" fill="url(#shadow)"/><circle cx="551.9" cy="443.6" r="19.7" fill="url(#bead)"/><ellipse cx="545.4" cy="436.1" rx="5.1" ry="3.9" fill="#ffffff" opacity="0.80" filter="url(#soft)"/><ellipse cx="558.6" cy="450.7" rx="3.9" ry="3.0" fill="#5fb7e0" opacity="0.55" filter="url(#soft)"/></g>
  <g opacity="0.495"><ellipse cx="410.0" cy="363.1" rx="20.3" ry="18.4" fill="url(#shadow)"/><circle cx="408.1" cy="359.2" r="19.3" fill="url(#bead)"/><ellipse cx="401.7" cy="351.9" rx="5.0" ry="3.9" fill="#ffffff" opacity="0.80" filter="url(#soft)"/><ellipse cx="414.7" cy="366.2" rx="3.9" ry="2.9" fill="#5fb7e0" opacity="0.55" filter="url(#soft)"/></g>
  <g opacity="0.568"><ellipse cx="567.7" cy="213.1" rx="20.0" ry="18.1" fill="url(#shadow)"/><circle cx="565.8" cy="209.3" r="19.0" fill="url(#bead)"/><ellipse cx="559.5" cy="202.1" rx="4.9" ry="3.8" fill="#ffffff" opacity="0.80" filter="url(#soft)"/><ellipse cx="572.3" cy="216.2" rx="3.8" ry="2.9" fill="#5fb7e0" opacity="0.55" filter="url(#soft)"/></g>
  <g opacity="0.385"><ellipse cx="391.4" cy="150.6" rx="19.8" ry="17.9" fill="url(#shadow)"/><circle cx="389.6" cy="146.9" r="18.9" fill="url(#bead)"/><ellipse cx="383.3" cy="139.7" rx="4.9" ry="3.8" fill="#ffffff" opacity="0.80" filter="url(#soft)"/><ellipse cx="396.0" cy="153.7" rx="3.8" ry="2.8" fill="#5fb7e0" opacity="0.55" filter="url(#soft)"/></g>
  <g opacity="0.312"><ellipse cx="325.4" cy="478.7" rx="19.8" ry="17.9" fill="url(#shadow)"/><circle cx="323.5" cy="474.9" r="18.8" fill="url(#bead)"/><ellipse cx="317.3" cy="467.8" rx="4.9" ry="3.8" fill="#ffffff" opacity="0.80" filter="url(#soft)"/><ellipse cx="329.9" cy="481.7" rx="3.8" ry="2.8" fill="#5fb7e0" opacity="0.55" filter="url(#soft)"/></g>
  <g opacity="0.576"><ellipse cx="820.2" cy="733.1" rx="19.1" ry="17.3" fill="url(#shadow)"/><circle cx="818.4" cy="729.5" r="18.2" fill="url(#bead)"/><ellipse cx="812.4" cy="722.5" rx="4.7" ry="3.6" fill="#ffffff" opacity="0.80" filter="url(#soft)"/><ellipse cx="824.6" cy="736.0" rx="3.6" ry="2.7" fill="#5fb7e0" opacity="0.55" filter="url(#soft)"/></g>
  <g opacity="0.383"><ellipse cx="271.3" cy="744.3" rx="18.8" ry="17.0" fill="url(#shadow)"/><circle cx="269.5" cy="740.7" r="17.9" fill="url(#bead)"/><ellipse cx="263.6" cy="733.9" rx="4.7" ry="3.6" fill="#ffffff" opacity="0.80" filter="url(#soft)"/><ellipse cx="275.6" cy="747.2" rx="3.6" ry="2.7" fill="#5fb7e0" opacity="0.55" filter="url(#soft)"/></g>
  <g opacity="0.56"><ellipse cx="1220.1" cy="166.5" rx="18.6" ry="16.8" fill="url(#shadow)"/><circle cx="1218.3" cy="163.0" r="17.7" fill="url(#bead)"/><ellipse cx="1212.5" cy="156.2" rx="4.6" ry="3.5" fill="#ffffff" opacity="0.80" filter="url(#soft)"/><ellipse cx="1224.4" cy="169.4" rx="3.5" ry="2.7" fill="#5fb7e0" opacity="0.55" filter="url(#soft)"/></g>
  <g opacity="0.727"><ellipse cx="948.1" cy="626.2" rx="18.4" ry="16.6" fill="url(#shadow)"/><circle cx="946.3" cy="622.7" r="17.5" fill="url(#bead)"/><ellipse cx="940.6" cy="616.0" rx="4.6" ry="3.5" fill="#ffffff" opacity="0.80" filter="url(#soft)"/><ellipse cx="952.3" cy="629.0" rx="3.5" ry="2.6" fill="#5fb7e0" opacity="0.55" filter="url(#soft)"/></g>
  <g opacity="0.814"><ellipse cx="1366.3" cy="321.7" rx="18.2" ry="16.5" fill="url(#shadow)"/><circle cx="1364.6" cy="318.2" r="17.4" fill="url(#bead)"/><ellipse cx="1358.9" cy="311.6" rx="4.5" ry="3.5" fill="#ffffff" opacity="0.80" filter="url(#soft)"/><ellipse cx="1370.5" cy="324.5" rx="3.5" ry="2.6" fill="#5fb7e0" opacity="0.55" filter="url(#soft)"/></g>
  <g opacity="0.543"><ellipse cx="899.1" cy="778.5" rx="17.7" ry="16.1" fill="url(#shadow)"/><circle cx="897.4" cy="775.1" r="16.9" fill="url(#bead)"/><ellipse cx="891.8" cy="768.7" rx="4.4" ry="3.4" fill="#ffffff" opacity="0.80" filter="url(#soft)"/><ellipse cx="903.1" cy="781.2" rx="3.4" ry="2.5" fill="#5fb7e0" opacity="0.55" filter="url(#soft)"/></g>
  <g opacity="0.597"><ellipse cx="942.3" cy="744.8" rx="17.3" ry="15.6" fill="url(#shadow)"/><circle cx="940.7" cy="741.6" r="16.5" fill="url(#bead)"/><ellipse cx="935.2" cy="735.3" rx="4.3" ry="3.3" fill="#ffffff" opacity="0.80" filter="url(#soft)"/><ellipse cx="946.3" cy="747.5" rx="3.3" ry="2.5" fill="#5fb7e0" opacity="0.55" filter="url(#soft)"/></g>
  <g opacity="0.639"><ellipse cx="1287.1" cy="96.5" rx="17.2" ry="15.6" fill="url(#shadow)"/><circle cx="1285.5" cy="93.2" r="16.4" fill="url(#bead)"/><ellipse cx="1280.1" cy="87.0" rx="4.3" ry="3.3" fill="#ffffff" opacity="0.80" filter="url(#soft)"/><ellipse cx="1291.1" cy="99.1" rx="3.3" ry="2.5" fill="#5fb7e0" opacity="0.55" filter="url(#soft)"/></g>
  <g opacity="0.654"><ellipse cx="1080.1" cy="450.2" rx="17.2" ry="15.6" fill="url(#shadow)"/><circle cx="1078.5" cy="446.9" r="16.4" fill="url(#bead)"/><ellipse cx="1073.1" cy="440.7" rx="4.3" ry="3.3" fill="#ffffff" opacity="0.80" filter="url(#soft)"/><ellipse cx="1084.1" cy="452.8" rx="3.3" ry="2.5" fill="#5fb7e0" opacity="0.55" filter="url(#soft)"/></g>
  <g opacity="0.53"><ellipse cx="1007.2" cy="232.3" rx="16.5" ry="14.9" fill="url(#shadow)"/><circle cx="1005.6" cy="229.1" r="15.7" fill="url(#bead)"/><ellipse cx="1000.4" cy="223.2" rx="4.1" ry="3.1" fill="#ffffff" opacity="0.80" filter="url(#soft)"/><ellipse cx="1010.9" cy="234.8" rx="3.1" ry="2.4" fill="#5fb7e0" opacity="0.55" filter="url(#soft)"/></g>
  <g opacity="0.728"><ellipse cx="1048.9" cy="552.4" rx="16.3" ry="14.8" fill="url(#shadow)"/><circle cx="1047.4" cy="549.3" r="15.6" fill="url(#bead)"/><ellipse cx="1042.2" cy="543.4" rx="4.0" ry="3.1" fill="#ffffff" opacity="0.80" filter="url(#soft)"/><ellipse cx="1052.7" cy="554.9" rx="3.1" ry="2.3" fill="#5fb7e0" opacity="0.55" filter="url(#soft)"/></g>
  <g opacity="0.846"><ellipse cx="1392.5" cy="635.6" rx="16.3" ry="14.7" fill="url(#shadow)"/><circle cx="1391.0" cy="632.5" r="15.5" fill="url(#bead)"/><ellipse cx="1385.8" cy="626.6" rx="4.0" ry="3.1" fill="#ffffff" opacity="0.80" filter="url(#soft)"/><ellipse cx="1396.2" cy="638.1" rx="3.1" ry="2.3" fill="#5fb7e0" opacity="0.55" filter="url(#soft)"/></g>
  <g opacity="0.976"><ellipse cx="598.8" cy="139.4" rx="16.0" ry="14.5" fill="url(#shadow)"/><circle cx="597.3" cy="136.3" r="15.3" fill="url(#bead)"/><ellipse cx="592.2" cy="130.5" rx="4.0" ry="3.1" fill="#ffffff" opacity="0.80" filter="url(#soft)"/><ellipse cx="602.5" cy="141.8" rx="3.1" ry="2.3" fill="#5fb7e0" opacity="0.55" filter="url(#soft)"/></g>
  <g opacity="0.906"><ellipse cx="1138.6" cy="424.9" rx="15.9" ry="14.4" fill="url(#shadow)"/><circle cx="1137.1" cy="421.9" r="15.2" fill="url(#bead)"/><ellipse cx="1132.1" cy="416.1" rx="3.9" ry="3.0" fill="#ffffff" opacity="0.80" filter="url(#soft)"/><ellipse cx="1142.3" cy="427.3" rx="3.0" ry="2.3" fill="#5fb7e0" opacity="0.55" filter="url(#soft)"/></g>
  <g opacity="0.627"><ellipse cx="582.7" cy="257.7" rx="15.8" ry="14.3" fill="url(#shadow)"/><circle cx="581.2" cy="254.7" r="15.1" fill="url(#bead)"/><ellipse cx="576.2" cy="249.0" rx="3.9" ry="3.0" fill="#ffffff" opacity="0.80" filter="url(#soft)"/><ellipse cx="586.3" cy="260.2" rx="3.0" ry="2.3" fill="#5fb7e0" opacity="0.55" filter="url(#soft)"/></g>
  <g opacity="0.918"><ellipse cx="1058.7" cy="342.2" rx="13.6" ry="12.3" fill="url(#shadow)"/><circle cx="1057.5" cy="339.6" r="12.9" fill="url(#bead)"/><ellipse cx="1053.2" cy="334.7" rx="3.4" ry="2.6" fill="#ffffff" opacity="0.80" filter="url(#soft)"/><ellipse cx="1061.8" cy="344.2" rx="2.6" ry="1.9" fill="#5fb7e0" opacity="0.55" filter="url(#soft)"/></g>
  <g opacity="0.208"><ellipse cx="44.2" cy="311.3" rx="13.5" ry="12.2" fill="url(#shadow)"/><circle cx="42.9" cy="308.7" r="12.9" fill="url(#bead)"/><ellipse cx="38.7" cy="303.9" rx="3.3" ry="2.6" fill="#ffffff" opacity="0.80" filter="url(#soft)"/><ellipse cx="47.3" cy="313.4" rx="2.6" ry="1.9" fill="#5fb7e0" opacity="0.55" filter="url(#soft)"/></g>
  <g opacity="0.678"><ellipse cx="1119.7" cy="233.0" rx="13.2" ry="12.0" fill="url(#shadow)"/><circle cx="1118.5" cy="230.4" r="12.6" fill="url(#bead)"/><ellipse cx="1114.3" cy="225.7" rx="3.3" ry="2.5" fill="#ffffff" opacity="0.80" filter="url(#soft)"/><ellipse cx="1122.8" cy="235.0" rx="2.5" ry="1.9" fill="#5fb7e0" opacity="0.55" filter="url(#soft)"/></g>
  <g opacity="0.671"><ellipse cx="1384.0" cy="124.2" rx="12.9" ry="11.7" fill="url(#shadow)"/><circle cx="1382.7" cy="121.7" r="12.3" fill="url(#bead)"/><ellipse cx="1378.7" cy="117.1" rx="3.2" ry="2.5" fill="#ffffff" opacity="0.80" filter="url(#soft)"/><ellipse cx="1386.9" cy="126.2" rx="2.5" ry="1.8" fill="#5fb7e0" opacity="0.55" filter="url(#soft)"/></g>
  <g opacity="0.997"><ellipse cx="912.3" cy="169.6" rx="12.8" ry="11.6" fill="url(#shadow)"/><circle cx="911.0" cy="167.2" r="12.2" fill="url(#bead)"/><ellipse cx="907.0" cy="162.6" rx="3.2" ry="2.4" fill="#ffffff" opacity="0.80" filter="url(#soft)"/><ellipse cx="915.2" cy="171.6" rx="2.4" ry="1.8" fill="#5fb7e0" opacity="0.55" filter="url(#soft)"/></g>
  <g opacity="0.636"><ellipse cx="521.5" cy="374.5" rx="12.7" ry="11.5" fill="url(#shadow)"/><circle cx="520.3" cy="372.1" r="12.1" fill="url(#bead)"/><ellipse cx="516.3" cy="367.5" rx="3.1" ry="2.4" fill="#ffffff" opacity="0.80" filter="url(#soft)"/><ellipse cx="524.4" cy="376.5" rx="2.4" ry="1.8" fill="#5fb7e0" opacity="0.55" filter="url(#soft)"/></g>
  <g opacity="0.817"><ellipse cx="977.7" cy="336.9" rx="12.6" ry="11.4" fill="url(#shadow)"/><circle cx="976.5" cy="334.5" r="12.0" fill="url(#bead)"/><ellipse cx="972.5" cy="330.0" rx="3.1" ry="2.4" fill="#ffffff" opacity="0.80" filter="url(#soft)"/><ellipse cx="980.5" cy="338.9" rx="2.4" ry="1.8" fill="#5fb7e0" opacity="0.55" filter="url(#soft)"/></g>
  <g opacity="0.644"><ellipse cx="665.2" cy="410.7" rx="12.5" ry="11.3" fill="url(#shadow)"/><circle cx="664.0" cy="408.3" r="11.9" fill="url(#bead)"/><ellipse cx="660.1" cy="403.8" rx="3.1" ry="2.4" fill="#ffffff" opacity="0.80" filter="url(#soft)"/><ellipse cx="668.0" cy="412.6" rx="2.4" ry="1.8" fill="#5fb7e0" opacity="0.55" filter="url(#soft)"/></g>
  <g opacity="0.797"><ellipse cx="1210.0" cy="656.3" rx="12.4" ry="11.2" fill="url(#shadow)"/><circle cx="1208.8" cy="653.9" r="11.8" fill="url(#bead)"/><ellipse cx="1204.9" cy="649.5" rx="3.1" ry="2.4" fill="#ffffff" opacity="0.80" filter="url(#soft)"/><ellipse cx="1212.8" cy="658.2" rx="2.4" ry="1.8" fill="#5fb7e0" opacity="0.55" filter="url(#soft)"/></g>
  <g opacity="0.41"><ellipse cx="320.5" cy="312.4" rx="11.8" ry="10.7" fill="url(#shadow)"/><circle cx="319.3" cy="310.1" r="11.2" fill="url(#bead)"/><ellipse cx="315.6" cy="305.9" rx="2.9" ry="2.2" fill="#ffffff" opacity="0.80" filter="url(#soft)"/><ellipse cx="323.1" cy="314.2" rx="2.2" ry="1.7" fill="#5fb7e0" opacity="0.55" filter="url(#soft)"/></g>
  <g opacity="0.558"><ellipse cx="597.1" cy="298.2" rx="11.4" ry="10.4" fill="url(#shadow)"/><circle cx="596.0" cy="296.0" r="10.9" fill="url(#bead)"/><ellipse cx="592.4" cy="291.9" rx="2.8" ry="2.2" fill="#ffffff" opacity="0.80" filter="url(#soft)"/><ellipse cx="599.7" cy="299.9" rx="2.2" ry="1.6" fill="#5fb7e0" opacity="0.55" filter="url(#soft)"/></g>
  <g opacity="0.678"><ellipse cx="832.5" cy="426.0" rx="11.2" ry="10.2" fill="url(#shadow)"/><circle cx="831.4" cy="423.9" r="10.7" fill="url(#bead)"/><ellipse cx="827.9" cy="419.8" rx="2.8" ry="2.1" fill="#ffffff" opacity="0.80" filter="url(#soft)"/><ellipse cx="835.1" cy="427.7" rx="2.1" ry="1.6" fill="#5fb7e0" opacity="0.55" filter="url(#soft)"/></g>
  <g opacity="0.932"><ellipse cx="1325.3" cy="610.3" rx="11.1" ry="10.0" fill="url(#shadow)"/><circle cx="1324.2" cy="608.2" r="10.6" fill="url(#bead)"/><ellipse cx="1320.7" cy="604.2" rx="2.7" ry="2.1" fill="#ffffff" opacity="0.80" filter="url(#soft)"/><ellipse cx="1327.8" cy="612.0" rx="2.1" ry="1.6" fill="#5fb7e0" opacity="0.55" filter="url(#soft)"/></g>
  <g opacity="0.946"><ellipse cx="1122.5" cy="700.2" rx="10.9" ry="9.9" fill="url(#shadow)"/><circle cx="1121.5" cy="698.2" r="10.4" fill="url(#bead)"/><ellipse cx="1118.0" cy="694.2" rx="2.7" ry="2.1" fill="#ffffff" opacity="0.80" filter="url(#soft)"/><ellipse cx="1125.0" cy="701.9" rx="2.1" ry="1.6" fill="#5fb7e0" opacity="0.55" filter="url(#soft)"/></g>
  <g opacity="0.572"><ellipse cx="917.3" cy="37.8" rx="10.5" ry="9.5" fill="url(#shadow)"/><circle cx="916.3" cy="35.8" r="10.0" fill="url(#bead)"/><ellipse cx="913.0" cy="32.0" rx="2.6" ry="2.0" fill="#ffffff" opacity="0.80" filter="url(#soft)"/><ellipse cx="919.7" cy="39.4" rx="2.0" ry="1.5" fill="#5fb7e0" opacity="0.55" filter="url(#soft)"/></g>
  <g opacity="0.522"><ellipse cx="970.7" cy="738.1" rx="9.9" ry="8.9" fill="url(#shadow)"/><circle cx="969.7" cy="736.3" r="9.4" fill="url(#bead)"/><ellipse cx="966.6" cy="732.7" rx="2.4" ry="1.9" fill="#ffffff" opacity="0.80" filter="url(#soft)"/><ellipse cx="972.9" cy="739.7" rx="1.9" ry="1.4" fill="#5fb7e0" opacity="0.55" filter="url(#soft)"/></g>
  <g opacity="0.6"><ellipse cx="712.0" cy="97.6" rx="9.5" ry="8.6" fill="url(#shadow)"/><circle cx="711.1" cy="95.8" r="9.0" fill="url(#bead)"/><ellipse cx="708.1" cy="92.3" rx="2.3" ry="1.8" fill="#ffffff" opacity="0.80" filter="url(#soft)"/><ellipse cx="714.2" cy="99.0" rx="1.8" ry="1.4" fill="#5fb7e0" opacity="0.55" filter="url(#soft)"/></g>
  <g opacity="0.507"><ellipse cx="341.3" cy="294.2" rx="9.4" ry="8.5" fill="url(#shadow)"/><circle cx="340.4" cy="292.4" r="8.9" fill="url(#bead)"/><ellipse cx="337.4" cy="289.0" rx="2.3" ry="1.8" fill="#ffffff" opacity="0.80" filter="url(#soft)"/><ellipse cx="343.4" cy="295.6" rx="1.8" ry="1.3" fill="#5fb7e0" opacity="0.55" filter="url(#soft)"/></g>
  <g opacity="0.165"><ellipse cx="101.2" cy="509.1" rx="9.2" ry="8.3" fill="url(#shadow)"/><circle cx="100.4" cy="507.3" r="8.8" fill="url(#bead)"/><ellipse cx="97.5" cy="504.0" rx="2.3" ry="1.8" fill="#ffffff" opacity="0.80" filter="url(#soft)"/><ellipse cx="103.4" cy="510.5" rx="1.8" ry="1.3" fill="#5fb7e0" opacity="0.55" filter="url(#soft)"/></g>
  <g opacity="0.616"><ellipse cx="1006.8" cy="333.1" rx="8.8" ry="7.9" fill="url(#shadow)"/><circle cx="1006.0" cy="331.4" r="8.4" fill="url(#bead)"/><ellipse cx="1003.2" cy="328.2" rx="2.2" ry="1.7" fill="#ffffff" opacity="0.80" filter="url(#soft)"/><ellipse cx="1008.8" cy="334.4" rx="1.7" ry="1.3" fill="#5fb7e0" opacity="0.55" filter="url(#soft)"/></g>
  <g opacity="0.348"><ellipse cx="362.8" cy="731.7" rx="8.6" ry="7.8" fill="url(#shadow)"/><circle cx="362.0" cy="730.1" r="8.2" fill="url(#bead)"/><ellipse cx="359.3" cy="727.0" rx="2.1" ry="1.6" fill="#ffffff" opacity="0.80" filter="url(#soft)"/><ellipse cx="364.8" cy="733.0" rx="1.6" ry="1.2" fill="#5fb7e0" opacity="0.55" filter="url(#soft)"/></g>
  <g opacity="0.588"><ellipse cx="585.3" cy="767.5" rx="8.5" ry="7.7" fill="url(#shadow)"/><circle cx="584.5" cy="765.9" r="8.1" fill="url(#bead)"/><ellipse cx="581.9" cy="762.8" rx="2.1" ry="1.6" fill="#ffffff" opacity="0.80" filter="url(#soft)"/><ellipse cx="587.3" cy="768.8" rx="1.6" ry="1.2" fill="#5fb7e0" opacity="0.55" filter="url(#soft)"/></g>
  <g opacity="0.782"><ellipse cx="540.9" cy="208.0" rx="8.2" ry="7.4" fill="url(#shadow)"/><circle cx="540.1" cy="206.5" r="7.8" fill="url(#bead)"/><ellipse cx="537.5" cy="203.5" rx="2.0" ry="1.6" fill="#ffffff" opacity="0.80" filter="url(#soft)"/><ellipse cx="542.8" cy="209.3" rx="1.6" ry="1.2" fill="#5fb7e0" opacity="0.55" filter="url(#soft)"/></g>
  <g opacity="0.909"><ellipse cx="1230.7" cy="782.1" rx="8.2" ry="7.4" fill="url(#shadow)"/><circle cx="1230.0" cy="780.5" r="7.8" fill="url(#bead)"/><ellipse cx="1227.4" cy="777.6" rx="2.0" ry="1.6" fill="#ffffff" opacity="0.80" filter="url(#soft)"/><ellipse cx="1232.6" cy="783.3" rx="1.6" ry="1.2" fill="#5fb7e0" opacity="0.55" filter="url(#soft)"/></g>
  <g opacity="0.574"><ellipse cx="748.4" cy="52.8" rx="7.7" ry="6.9" fill="url(#shadow)"/><circle cx="747.7" cy="51.4" r="7.3" fill="url(#bead)"/><ellipse cx="745.3" cy="48.6" rx="1.9" ry="1.5" fill="#ffffff" opacity="0.80" filter="url(#soft)"/><ellipse cx="750.2" cy="54.0" rx="1.5" ry="1.1" fill="#5fb7e0" opacity="0.55" filter="url(#soft)"/></g>
  <g opacity="0.589"><ellipse cx="779.8" cy="574.1" rx="7.3" ry="6.6" fill="url(#shadow)"/><circle cx="779.1" cy="572.7" r="6.9" fill="url(#bead)"/><ellipse cx="776.8" cy="570.1" rx="1.8" ry="1.4" fill="#ffffff" opacity="0.80" filter="url(#soft)"/><ellipse cx="781.4" cy="575.2" rx="1.4" ry="1.0" fill="#5fb7e0" opacity="0.55" filter="url(#soft)"/></g>
  <g opacity="0.669"><ellipse cx="749.7" cy="200.9" rx="7.3" ry="6.6" fill="url(#shadow)"/><circle cx="749.0" cy="199.6" r="6.9" fill="url(#bead)"/><ellipse cx="746.7" cy="196.9" rx="1.8" ry="1.4" fill="#ffffff" opacity="0.80" filter="url(#soft)"/><ellipse cx="751.4" cy="202.0" rx="1.4" ry="1.0" fill="#5fb7e0" opacity="0.55" filter="url(#soft)"/></g>
  <g opacity="0.265"><ellipse cx="251.0" cy="84.6" rx="7.2" ry="6.5" fill="url(#shadow)"/><circle cx="250.3" cy="83.2" r="6.9" fill="url(#bead)"/><ellipse cx="248.1" cy="80.6" rx="1.8" ry="1.4" fill="#ffffff" opacity="0.80" filter="url(#soft)"/><ellipse cx="252.6" cy="85.7" rx="1.4" ry="1.0" fill="#5fb7e0" opacity="0.55" filter="url(#soft)"/></g>
  <g opacity="0.62"><ellipse cx="1288.4" cy="54.6" rx="6.8" ry="6.2" fill="url(#shadow)"/><circle cx="1287.8" cy="53.3" r="6.5" fill="url(#bead)"/><ellipse cx="1285.6" cy="50.8" rx="1.7" ry="1.3" fill="#ffffff" opacity="0.80" filter="url(#soft)"/><ellipse cx="1290.0" cy="55.6" rx="1.3" ry="1.0" fill="#5fb7e0" opacity="0.55" filter="url(#soft)"/></g>
  <g opacity="0.257"><ellipse cx="134.0" cy="384.1" rx="6.6" ry="5.9" fill="url(#shadow)"/><circle cx="133.4" cy="382.9" r="6.2" fill="url(#bead)"/><ellipse cx="131.4" cy="380.5" rx="1.6" ry="1.2" fill="#ffffff" opacity="0.80" filter="url(#soft)"/><ellipse cx="135.5" cy="385.1" rx="1.2" ry="0.9" fill="#5fb7e0" opacity="0.55" filter="url(#soft)"/></g>
  <g opacity="0.318"><ellipse cx="349.0" cy="459.1" rx="6.5" ry="5.9" fill="url(#shadow)"/><circle cx="348.4" cy="457.8" r="6.2" fill="url(#bead)"/><ellipse cx="346.4" cy="455.5" rx="1.6" ry="1.2" fill="#ffffff" opacity="0.80" filter="url(#soft)"/><ellipse cx="350.5" cy="460.1" rx="1.2" ry="0.9" fill="#5fb7e0" opacity="0.55" filter="url(#soft)"/></g>
  <g opacity="0.588"><ellipse cx="742.1" cy="705.2" rx="6.4" ry="5.8" fill="url(#shadow)"/><circle cx="741.5" cy="704.0" r="6.1" fill="url(#bead)"/><ellipse cx="739.5" cy="701.7" rx="1.6" ry="1.2" fill="#ffffff" opacity="0.80" filter="url(#soft)"/><ellipse cx="743.6" cy="706.2" rx="1.2" ry="0.9" fill="#5fb7e0" opacity="0.55" filter="url(#soft)"/></g>
  <g opacity="0.929"><ellipse cx="1005.2" cy="70.9" rx="6.2" ry="5.6" fill="url(#shadow)"/><circle cx="1004.6" cy="69.7" r="5.9" fill="url(#bead)"/><circle cx="1003.0" cy="67.8" r="1.4" fill="#ffffff" opacity="0.75"/></g>
  <g opacity="0.536"><ellipse cx="635.1" cy="640.9" rx="6.1" ry="5.5" fill="url(#shadow)"/><circle cx="634.5" cy="639.7" r="5.8" fill="url(#bead)"/><circle cx="632.9" cy="637.8" r="1.4" fill="#ffffff" opacity="0.75"/></g>
  <g opacity="0.737"><ellipse cx="999.2" cy="379.9" rx="6.1" ry="5.5" fill="url(#shadow)"/><circle cx="998.6" cy="378.7" r="5.8" fill="url(#bead)"/><circle cx="997.0" cy="376.9" r="1.4" fill="#ffffff" opacity="0.75"/></g>
  <g opacity="0.56"><ellipse cx="1075.5" cy="640.8" rx="5.9" ry="5.3" fill="url(#shadow)"/><circle cx="1074.9" cy="639.7" r="5.6" fill="url(#bead)"/><circle cx="1073.3" cy="637.9" r="1.3" fill="#ffffff" opacity="0.75"/></g>
  <g opacity="0.591"><ellipse cx="1132.3" cy="746.1" rx="5.8" ry="5.2" fill="url(#shadow)"/><circle cx="1131.7" cy="745.0" r="5.5" fill="url(#bead)"/><circle cx="1130.2" cy="743.2" r="1.3" fill="#ffffff" opacity="0.75"/></g>
  <g opacity="0.585"><ellipse cx="869.3" cy="598.0" rx="5.7" ry="5.1" fill="url(#shadow)"/><circle cx="868.7" cy="596.9" r="5.4" fill="url(#bead)"/><circle cx="867.2" cy="595.2" r="1.3" fill="#ffffff" opacity="0.75"/></g>
  <g opacity="0.825"><ellipse cx="882.7" cy="743.4" rx="5.5" ry="5.0" fill="url(#shadow)"/><circle cx="882.1" cy="742.3" r="5.3" fill="url(#bead)"/><circle cx="880.7" cy="740.6" r="1.3" fill="#ffffff" opacity="0.75"/></g>
  <g opacity="0.78"><ellipse cx="649.8" cy="142.7" rx="5.4" ry="4.9" fill="url(#shadow)"/><circle cx="649.3" cy="141.6" r="5.1" fill="url(#bead)"/><circle cx="647.9" cy="140.0" r="1.2" fill="#ffffff" opacity="0.75"/></g>
  <g opacity="0.626"><ellipse cx="551.8" cy="234.0" rx="5.2" ry="4.7" fill="url(#shadow)"/><circle cx="551.3" cy="233.0" r="4.9" fill="url(#bead)"/><circle cx="549.9" cy="231.4" r="1.2" fill="#ffffff" opacity="0.75"/></g>
  <g opacity="0.332"><ellipse cx="275.7" cy="215.8" rx="4.7" ry="4.3" fill="url(#shadow)"/><circle cx="275.2" cy="214.9" r="4.5" fill="url(#bead)"/><circle cx="274.0" cy="213.5" r="1.1" fill="#ffffff" opacity="0.75"/></g>
  <g opacity="0.56"><ellipse cx="331.6" cy="376.5" rx="4.6" ry="4.2" fill="url(#shadow)"/><circle cx="331.1" cy="375.7" r="4.4" fill="url(#bead)"/><circle cx="329.9" cy="374.3" r="1.0" fill="#ffffff" opacity="0.75"/></g>
  <g opacity="0.748"><ellipse cx="964.3" cy="80.6" rx="4.4" ry="4.0" fill="url(#shadow)"/><circle cx="963.9" cy="79.7" r="4.2" fill="url(#bead)"/><circle cx="962.8" cy="78.4" r="1.0" fill="#ffffff" opacity="0.75"/></g>
  <g opacity="0.819"><ellipse cx="1115.9" cy="207.4" rx="3.5" ry="3.2" fill="url(#shadow)"/><circle cx="1115.6" cy="206.8" r="3.3" fill="url(#bead)"/><circle cx="1114.7" cy="205.7" r="0.8" fill="#ffffff" opacity="0.75"/></g>
</svg>
